<?xml version="1.0" standalone="no"?>
<!DOCTYPE svg PUBLIC "-//W3C//DTD SVG 20010904//EN"
 "http://www.w3.org/TR/2001/REC-SVG-20010904/DTD/svg10.dtd">
<svg version="1.0" xmlns="http://www.w3.org/2000/svg"
 width="154.000000pt" height="113.000000pt" viewBox="0 0 154.000000 113.000000"
 preserveAspectRatio="xMidYMid meet">

<g transform="translate(0.000000,113.000000) scale(0.100000,-0.100000)"
fill="#000000" stroke="none">
<path d="M369 1002 c-81 -52 -156 -195 -200 -378 -63 -268 -66 -447 -7 -506
24 -24 70 -19 104 13 30 28 61 103 70 167 6 48 9 52 38 57 17 2 56 9 86 14 30
5 58 7 61 5 3 -2 8 -44 11 -93 4 -68 11 -99 29 -132 44 -79 114 -79 159 1 23
42 25 55 24 170 -1 191 -55 475 -112 588 -41 80 -87 115 -160 120 -50 3 -63 0
-103 -26z m123 -257 c10 -28 17 -81 18 -121 l0 -71 -46 -7 c-26 -3 -60 -6 -76
-6 -28 0 -29 1 -23 38 15 91 27 138 45 179 16 36 24 44 42 41 18 -2 27 -15 40
-53z"/>
</g>
</svg>
